<svg width="28" height="28" viewBox="0 0 28 28" fill="none" xmlns="http://www.w3.org/2000/svg">
<path d="M13.9429 1.75003C10.7039 1.76514 7.60269 3.06243 5.31771 5.35812C3.03274 7.6538 1.74996 10.761 1.75 14C1.75 17.2489 3.04062 20.3648 5.33794 22.6621C7.63526 24.9594 10.7511 26.25 14 26.25C17.2489 26.25 20.3647 24.9594 22.6621 22.6621C24.9594 20.3648 26.25 17.2489 26.25 14C26.25 10.7511 24.9594 7.6353 22.6621 5.33797C20.3647 3.04065 17.2489 1.75003 14 1.75003C13.981 1.74999 13.9619 1.74999 13.9429 1.75003ZM19.0082 9.12453C19.1103 9.12248 19.3359 9.14802 19.4829 9.26746C19.5805 9.3523 19.6428 9.47068 19.6574 9.59922C19.6738 9.69416 19.6942 9.9116 19.6779 10.081C19.4941 12.0186 18.6958 16.7185 18.2896 18.8878C18.1181 19.8065 17.7801 20.1138 17.4524 20.1434C16.7419 20.2098 16.2019 19.6738 15.5129 19.2226C14.4349 18.5152 13.8254 18.0752 12.7791 17.3851C11.5694 16.5889 12.3534 16.1499 13.0424 15.4353C13.2231 15.2475 16.3571 12.3963 16.4184 12.138C16.4255 12.1054 16.4326 11.9849 16.3612 11.9216C16.2897 11.8583 16.1836 11.8798 16.107 11.8971C15.9988 11.9216 14.2766 13.0609 10.9406 15.3118C10.4506 15.6487 10.0086 15.812 9.61144 15.8018C9.17451 15.7936 8.33336 15.5558 7.70757 15.3526C6.93993 15.1025 6.33049 14.9708 6.38356 14.5472C6.41112 14.3267 6.71532 14.1011 7.29518 13.8704C10.8661 12.3146 13.2466 11.2887 14.4389 10.7936C17.8404 9.37872 18.5478 9.13271 19.0082 9.12453Z" fill="#C51013"/>
</svg>

